<svg
   xmlns="http://www.w3.org/2000/svg"
   xmlns:svg="http://www.w3.org/2000/svg"><g
     inkscape:groupmode="layer"
     id="layer2"
     inkscape:label="Ebene 2"><path
       style="fill:none;stroke:#000000;stroke-width:0.6;stroke-linecap:butt;stroke-dasharray:none;stroke-opacity:1"
       id="path1143"
       sodipodi:type="arc"
       sodipodi:cx="87.181526"
       sodipodi:cy="96.50769"
       sodipodi:rx="2.13832"
       sodipodi:ry="2.13832"
       sodipodi:start="0"
       sodipodi:end="3.1415927"
       sodipodi:arc-type="arc"
       d="m 89.319846,96.50769 a 2.13832,2.13832 0 0 1 -1.06916,1.85184 2.13832,2.13832 0 0 1 -2.13832,0 2.13832,2.13832 0 0 1 -1.06916,-1.85184"
       sodipodi:open="true" /><path
       style="fill:none;stroke:#000000;stroke-width:0.6;stroke-linecap:butt;stroke-dasharray:none;stroke-opacity:1"
       id="path1143-3"
       sodipodi:type="arc"
       sodipodi:cx="85.519234"
       sodipodi:cy="-84.744102"
       sodipodi:rx="0.55793577"
       sodipodi:ry="0.55793577"
       sodipodi:start="0"
       sodipodi:end="3.1415927"
       sodipodi:arc-type="arc"
       d="m 86.077169,-84.744102 a 0.55793577,0.55793577 0 0 1 -0.278967,0.483186 0.55793577,0.55793577 0 0 1 -0.557936,0 0.55793577,0.55793577 0 0 1 -0.278968,-0.483186"
       sodipodi:open="true"
       transform="rotate(90)" /><path
       style="fill:none;stroke:#000000;stroke-width:0.6;stroke-linecap:butt;stroke-dasharray:none;stroke-opacity:1"
       id="path1143-3-6"
       sodipodi:type="arc"
       sodipodi:cx="-85.518219"
       sodipodi:cy="89.619759"
       sodipodi:rx="0.55793577"
       sodipodi:ry="0.55793577"
       sodipodi:start="0"
       sodipodi:end="3.1415927"
       sodipodi:arc-type="arc"
       d="m -84.960283,89.619759 a 0.55793577,0.55793577 0 0 1 -0.278968,0.483186 0.55793577,0.55793577 0 0 1 -0.557936,0 0.55793577,0.55793577 0 0 1 -0.278968,-0.483186"
       sodipodi:open="true"
       transform="rotate(-90)" /><path
       style="fill:none;stroke:#000000;stroke-width:0.6;stroke-linecap:butt;stroke-linejoin:miter;stroke-dasharray:none;stroke-opacity:1"
       d="m 84.743053,84.961306 h 4.477234"
       id="path1262" /><path
       style="fill:none;stroke:#000000;stroke-width:0.600147;stroke-linecap:butt;stroke-linejoin:miter;stroke-dasharray:none;stroke-opacity:1"
       d="m 84.743053,84.96038 h 4.877"
       id="path1264" /><path
       style="fill:none;stroke:#000000;stroke-width:0.6;stroke-linecap:butt;stroke-linejoin:miter;stroke-dasharray:none;stroke-opacity:1"
       d="M 85.043251,85.777306 V 96.514817"
       id="path1264-7"
       sodipodi:nodetypes="cc" /><path
       style="fill:none;stroke:#000000;stroke-width:0.6;stroke-linecap:butt;stroke-linejoin:miter;stroke-dasharray:none;stroke-opacity:1"
       d="M 89.321079,85.777306 V 96.563974"
       id="path1264-7-5"
       sodipodi:nodetypes="cc" /><circle
       style="fill:#000000;fill-opacity:1;stroke:#000000;stroke-width:0.600001;stroke-linecap:butt;stroke-dasharray:none;stroke-opacity:1"
       id="path1369"
       cx="86.151588"
       cy="82.815598"
       r="0.40427777" /><circle
       style="fill:#000000;fill-opacity:1;stroke:#000000;stroke-width:0.332552;stroke-linecap:butt;stroke-dasharray:none;stroke-opacity:1"
       id="path1369-3"
       cx="87.803917"
       cy="83.935303"
       r="0.22407168" /><circle
       style="fill:#000000;fill-opacity:1;stroke:#000000;stroke-width:0.244998;stroke-linecap:butt;stroke-dasharray:none;stroke-opacity:1"
       id="path1369-3-5"
       cx="87.870834"
       cy="89.532753"
       r="0.16507801" /><circle
       style="fill:#000000;fill-opacity:1;stroke:#000000;stroke-width:0.600001;stroke-linecap:butt;stroke-dasharray:none;stroke-opacity:1"
       id="path3091"
       cx="87.19265"
       cy="96.587563"
       r="0.99518746" /><rect
       style="fill:#000000;fill-opacity:1;stroke:#000000;stroke-width:0.600001;stroke-linecap:butt;stroke-dasharray:none;stroke-opacity:1"
       id="rect3457"
       width="1.9876481"
       height="5.2811408"
       x="86.199158"
       y="91.065254" /><path
       style="fill:#000000;fill-opacity:1;stroke:#000000;stroke-width:0;stroke-linecap:butt;stroke-linejoin:miter;stroke-dasharray:none;stroke-opacity:1"
       d="m 88.483918,90.794303 -2.584771,-0.0268 -9.45e-4,-0.257089 c 0,0 0.183416,-0.0053 0.254128,-0.05415 0.09224,-0.06373 0.04368,-0.190311 0.177882,-0.281297 0.15134,-0.102606 0.185783,-0.09408 0.307753,0.0053 0.02348,0.01913 0.02239,0.118211 0.02892,0.152638 0.01907,0.100445 0.09037,0.15966 0.229653,0.161264 0.120791,0.0014 0.219335,0.02375 0.31706,-0.09568 0.07326,-0.08953 0.0141,-0.04878 0.08203,-0.142659 0.08932,-0.123438 0.177951,0.02243 0.186927,0.06555 0.0089,0.04312 0.08193,0.126239 0.105942,0.153396 0.05423,0.06132 0.179079,0.0739 0.275296,0.09184 0.07664,0.01429 0.267495,0.06155 0.318391,0.06274 0.165244,0.04247 0.264889,0.07587 0.291758,0.09038 0.01927,0.01562 0.01015,0.07459 0.01005,0.07458 z"
       id="path4185"
       sodipodi:nodetypes="cccasssssscsscccc" /><circle
       style="fill:#ffffff;fill-opacity:1;stroke:#ffffff;stroke-width:0.299982;stroke-linecap:butt;stroke-dasharray:none;stroke-opacity:1"
       id="path1369-3-5-6"
       cx="86.822792"
       cy="91.945312"
       r="0.20212601" /><circle
       style="fill:#ffffff;fill-opacity:1;stroke:#ffffff;stroke-width:0.20196;stroke-linecap:butt;stroke-dasharray:none;stroke-opacity:1"
       id="path1369-3-5-6-2"
       cx="87.46312"
       cy="93.508568"
       r="0.13607934" /><rect
       style="fill:none;fill-opacity:1;stroke:none;stroke-width:0.207;stroke-linecap:butt;stroke-dasharray:none;stroke-opacity:1"
       id="rect7091"
       width="13.250477"
       height="18.783842"
       x="80.453308"
       y="81.254646"
       inkscape:export-filename="rect7091.png"
       inkscape:export-xdpi="490.72958"
       inkscape:export-ydpi="490.72958" />
  </g>
</svg>
